<svg fill="#21bf54" viewBox="0 0 24 24" xmlns="http://www.w3.org/2000/svg">
  <path d="M12 5.375c-6.626 0-12 2.823-12 6.31 0 3.488 5.374 6.313 12 6.313s12-2.825 12-6.313c0-3.487-5.374-6.31-12-6.31Zm0 .63c6.427 0 11.37 2.707 11.37 5.68 0 2.974-4.946 5.683-11.37 5.683-6.428 0-11.37-2.709-11.37-5.682C.63 8.711 5.576 6.004 12 6.004Zm-1.457 1.25L9.33 13.512h1.353l.699-3.585c1.102 0 1.557-.044 1.758.172.207.222.1.467-.47 3.413h1.372c.594-3.046.857-3.692.308-4.197-.523-.482-1.606-.397-2.775-.397l.323-1.661h-1.355ZM4.866 8.922l-1.214 6.26h1.362l.322-1.663c1.525 0 2.472.11 3.348-.709.968-.89 1.22-2.474.53-3.268-.36-.415-.94-.62-1.726-.62H4.866Zm10.644 0-1.216 6.26h1.365l.322-1.663c1.603 0 2.49.093 3.348-.709.968-.89 1.22-2.474.53-3.268-.36-.415-.94-.62-1.726-.62H15.51Zm-8.508.986c.851.024 1.338.204 1.132 1.273-.293 1.503-1.327 1.348-2.6 1.348l.508-2.62c.353 0 .676-.009.96 0Zm10.645 0c.852.024 1.334.204 1.128 1.273-.297 1.525-1.361 1.348-2.6 1.348l.508-2.62c.355 0 .68-.009.964 0Z"></path>
</svg>