<svg fill="#21bf54" viewBox="0 0 24 24" xmlns="http://www.w3.org/2000/svg">
  <path d="M5.4 18.6A.6.6 0 0 1 6 18h12a.6.6 0 1 1 0 1.2H6a.6.6 0 0 1-.6-.6ZM19.19 6l.028.001c.225.015.444.074.646.172.146.067.27.173.362.304.08.12.174.333.174.723v7.218a1.757 1.757 0 0 1-.172.646.91.91 0 0 1-.305.362c-.12.08-.333.174-.723.174H4.811l-.029-.001a1.758 1.758 0 0 1-.645-.172.91.91 0 0 1-.363-.305c-.08-.12-.174-.332-.174-.722V7.21l.002-.028a1.75 1.75 0 0 1 .171-.646.91.91 0 0 1 .305-.362C4.198 6.094 4.41 6 4.8 6h14.39Zm.01-1.2H4.8c-2.4 0-2.4 2.4-2.4 2.4v7.2c0 2.4 2.4 2.4 2.4 2.4h14.4c2.4 0 2.4-2.4 2.4-2.4V7.2c0-2.4-2.4-2.4-2.4-2.4Z"></path>
</svg>