<svg fill="#21bf54" viewBox="0 0 24 24" xmlns="http://www.w3.org/2000/svg">
  <path fill-rule="evenodd" d="M8.337 3.964a5.58 5.58 0 0 0-.184-.015 2.205 2.205 0 0 0-2.154-1.668v1.96a7.347 7.347 0 0 0-4.49 5.381v.585c.689 1.254 2.86 1.695 3.231 1.77.04.01.06.014.053.014-3.629.48-3.285 3.373-3.285 3.373a1.5 1.5 0 0 0 1.5 1.395c.408-.028.807-.12 1.185-.27h3.09a4.5 4.5 0 0 0-.54 1.5h-.48a3.825 3.825 0 0 0-3.255 3.792.63.63 0 0 0 .585.72h10.015a5.64 5.64 0 0 0 5.894-6.237 5.473 5.473 0 0 0-1.125-3.135l-.165-.21c-.645-.825-1.02-1.363-.825-1.933.195-.57.547-.6.547-.6s.278-.045.683.135c.33.192.69.33 1.065.405a2.37 2.37 0 0 0 2.604-1.358c.142-.312.214-.652.214-.996.01-1.077-.495-2.182-1.087-3.132a7.496 7.496 0 0 0-2.331-2.355 5.997 5.997 0 0 0-3.959-.6 4.574 4.574 0 0 0-2.505 1.335 5.341 5.341 0 0 0-1.168 2.04 6.535 6.535 0 0 0-.954-1.12V4.5a2.205 2.205 0 0 0-2.159-2.218v1.683Zm7.956 13.109c.167 1.111.33 2.731-1.3 3.663-.444.154-.912.24-1.385.25H4.823a1.5 1.5 0 0 1 1.38-1.5H8.12v-.748A2.685 2.685 0 0 1 10.601 16l-.94-1.33c-.353.1-.694.23-.865.35H3.983c-.138.01-.272.046-.396.104-.207.083-.411.164-.594.045-.3-.195.165-1.68 1.515-1.68h1.5c.735 0 .855-.81.855-.81l.42-1.693A5.084 5.084 0 0 1 3.008 9.59a5.084 5.084 0 0 1 4.71-3.987l.124.003c.39.012.653.02 1.164.252 1.395.63 3.224 3.703 3.224 3.703l.09.135h.255v-.105c-.09-.664-.03-2.196.174-2.835a4.54 4.54 0 0 1 1.01-1.71 3.524 3.524 0 0 1 1.95-.988 3.959 3.959 0 0 1 2.79.435 5.346 5.346 0 0 1 1.708 1.69c.433.686.714 1.254.802 2.061-.001.03 0 .07.003.122.01.214.03.585-.192.82-.19.203-.672.345-1.005.27a2.355 2.355 0 0 1-.675-.27 1.995 1.995 0 0 0-1.708-.195 2.13 2.13 0 0 0-1.41 1.5 3.477 3.477 0 0 0 .96 3.357l.165.21c.52.651.819 1.45.855 2.28a4.498 4.498 0 0 1-.46 2.138 4.062 4.062 0 0 0-.695-1.956l-.555.552h.001ZM6.36 7.5a.75.75 0 1 0 0 1.5.75.75 0 0 0 0-1.5Z" clip-rule="evenodd"></path>
</svg>